<?xml version="1.0" standalone="no"?>
<!DOCTYPE svg PUBLIC "-//W3C//DTD SVG 20010904//EN"
 "http://www.w3.org/TR/2001/REC-SVG-20010904/DTD/svg10.dtd">
<svg version="1.0" xmlns="http://www.w3.org/2000/svg"
 width="512.000000pt" height="512.000000pt" viewBox="0 0 512.000000 512.000000"
 preserveAspectRatio="xMidYMid meet">

<g transform="translate(0.000000,512.000000) scale(0.100000,-0.100000)"
fill="#000000" stroke="none">
<path d="M441 2710 c-46 -11 -100 -67 -111 -116 -12 -51 -12 -1617 0 -1668 11
-51 65 -105 116 -116 52 -12 3536 -12 3588 0 51 11 105 65 116 116 5 22 10
393 10 834 0 441 -5 812 -10 834 -11 51 -65 105 -116 116 -48 12 -3545 11
-3593 0z m1099 -561 c69 -33 115 -79 149 -149 22 -47 26 -68 25 -145 0 -113
-25 -176 -94 -238 -71 -63 -121 -78 -287 -84 l-141 -6 -4 -104 c-3 -96 -5
-106 -27 -124 -33 -27 -84 -24 -118 5 l-28 24 -3 374 c-2 251 0 385 8 410 18
64 37 68 265 65 192 -2 202 -3 255 -28z m822 10 c220 -46 364 -268 329 -507
-20 -134 -96 -258 -194 -315 -84 -49 -133 -57 -363 -57 -230 0 -233 1 -255 57
-13 36 -12 732 2 772 19 54 43 60 246 61 100 0 206 -5 235 -11z m1119 -18 c23
-28 25 -78 4 -108 -24 -35 -77 -43 -267 -43 l-178 0 0 -95 0 -95 171 0 c143 0
176 -3 200 -17 56 -33 63 -107 12 -140 -23 -15 -56 -19 -205 -21 l-178 -4 0
-146 c0 -136 -1 -147 -22 -169 -28 -30 -85 -31 -122 -2 l-26 20 0 398 c0 303
3 401 13 413 28 36 48 38 315 35 l264 -2 19 -24z"/>
<path d="M1190 1854 l0 -156 129 4 c141 3 159 10 205 72 29 38 29 124 0 163
-47 63 -75 73 -210 73 l-124 0 0 -156z"/>
<path d="M2050 1720 l0 -280 118 0 c189 0 263 34 319 148 24 49 28 69 28 142
-1 62 -6 94 -19 120 -35 66 -69 102 -120 126 -46 21 -65 24 -188 24 l-138 0 0
-280z"/>
</g>
</svg>
